<svg width="24" height="25" viewBox="0 0 24 25" fill="none" xmlns="http://www.w3.org/2000/svg">
<path d="M2 12.2667C2 8.49549 2 6.60987 3.17157 5.4383C4.34315 4.26672 6.22876 4.26672 10 4.26672H14C17.7712 4.26672 19.6569 4.26672 20.8284 5.4383C22 6.60987 22 8.49549 22 12.2667V14.2667C22 18.038 22 19.9236 20.8284 21.0951C19.6569 22.2667 17.7712 22.2667 14 22.2667H10C6.22876 22.2667 4.34315 22.2667 3.17157 21.0951C2 19.9236 2 18.038 2 14.2667V12.2667Z" stroke="#AFB2BF" stroke-width="1.5"/>
<path d="M7 4.26672V2.76672" stroke="#AFB2BF" stroke-width="1.5" stroke-linecap="round"/>
<path d="M17 4.26672V2.76672" stroke="#AFB2BF" stroke-width="1.5" stroke-linecap="round"/>
<path d="M2.5 9.2666H21.5" stroke="#AFB2BF" stroke-width="1.5" stroke-linecap="round"/>
<path d="M18 17.2666C18 17.8189 17.5523 18.2666 17 18.2666C16.4477 18.2666 16 17.8189 16 17.2666C16 16.7143 16.4477 16.2666 17 16.2666C17.5523 16.2666 18 16.7143 18 17.2666Z" fill="#AFB2BF"/>
<path d="M18 13.2666C18 13.8189 17.5523 14.2666 17 14.2666C16.4477 14.2666 16 13.8189 16 13.2666C16 12.7143 16.4477 12.2666 17 12.2666C17.5523 12.2666 18 12.7143 18 13.2666Z" fill="#AFB2BF"/>
<path d="M13 17.2666C13 17.8189 12.5523 18.2666 12 18.2666C11.4477 18.2666 11 17.8189 11 17.2666C11 16.7143 11.4477 16.2666 12 16.2666C12.5523 16.2666 13 16.7143 13 17.2666Z" fill="#AFB2BF"/>
<path d="M13 13.2666C13 13.8189 12.5523 14.2666 12 14.2666C11.4477 14.2666 11 13.8189 11 13.2666C11 12.7143 11.4477 12.2666 12 12.2666C12.5523 12.2666 13 12.7143 13 13.2666Z" fill="#AFB2BF"/>
<path d="M8 17.2666C8 17.8189 7.55228 18.2666 7 18.2666C6.44772 18.2666 6 17.8189 6 17.2666C6 16.7143 6.44772 16.2666 7 16.2666C7.55228 16.2666 8 16.7143 8 17.2666Z" fill="#AFB2BF"/>
<path d="M8 13.2666C8 13.8189 7.55228 14.2666 7 14.2666C6.44772 14.2666 6 13.8189 6 13.2666C6 12.7143 6.44772 12.2666 7 12.2666C7.55228 12.2666 8 12.7143 8 13.2666Z" fill="#AFB2BF"/>
</svg>
