<svg width="24" height="25" viewBox="0 0 24 25" fill="none" xmlns="http://www.w3.org/2000/svg">
<path d="M3.27489 15.5624C2.42496 14.4582 2 13.9061 2 12.2667C2 10.6273 2.42496 10.0753 3.27489 8.97105C4.97196 6.76628 7.81811 4.26672 12 4.26672C16.1819 4.26672 19.028 6.76628 20.7251 8.97105C21.575 10.0753 22 10.6273 22 12.2667C22 13.9061 21.575 14.4582 20.7251 15.5624C19.028 17.7672 16.1819 20.2667 12 20.2667C7.81811 20.2667 4.97196 17.7672 3.27489 15.5624Z" stroke="#AFB2BF" stroke-width="1.5"/>
<path d="M15 12.2666C15 13.9235 13.6569 15.2666 12 15.2666C10.3431 15.2666 9 13.9235 9 12.2666C9 10.6097 10.3431 9.2666 12 9.2666C13.6569 9.2666 15 10.6097 15 12.2666Z" stroke="#AFB2BF" stroke-width="1.5"/>
</svg>
