<svg width="114" height="29" viewBox="0 0 114 29" fill="none" xmlns="http://www.w3.org/2000/svg">
<path d="M96.5139 21.8068C95.9389 21.8068 95.4502 21.3235 95.4502 20.7548V7.81856C95.4502 7.24993 95.9102 6.7666 96.5139 6.7666C97.0889 6.7666 97.5777 7.2215 97.5777 7.81856V20.7548C97.5777 21.3235 97.0889 21.8068 96.5139 21.8068Z" fill="#AFB2BF"/>
<path d="M60.3174 18.8216C59.8861 18.4804 59.2824 18.5373 58.9086 18.9638C57.9599 20.1294 55.6024 19.8451 54.9986 19.5892C54.1074 19.2481 53.6761 18.5089 53.6761 17.4285V10.349H58.3624C58.9374 10.349 59.4261 9.89414 59.4261 9.29709C59.4261 8.72846 58.9661 8.24512 58.3624 8.24512H53.6761V2.95689C53.6761 2.41669 53.2449 1.96179 52.6699 1.96179C52.1236 1.96179 51.6924 2.38826 51.6924 2.95689V17.4285C51.6924 19.3049 52.6124 20.7549 54.2511 21.4088C54.7686 21.6079 55.5736 21.7785 56.4649 21.7785C57.8736 21.7785 59.4836 21.3804 60.4611 20.1863C60.8061 19.7598 60.7486 19.1628 60.3174 18.8216Z" fill="#AFB2BF"/>
<path d="M44.0454 21.8637C43.7291 21.8637 43.3841 21.8353 43.0679 21.8069C39.6179 21.3804 37.5479 19.7882 37.5479 17.599C37.5479 17.0304 38.0079 16.5471 38.6116 16.5471C39.1866 16.5471 39.6754 17.0304 39.6754 17.599C39.6754 18.6225 41.1129 19.4471 43.3554 19.7314C45.5979 20.0157 47.1791 18.9069 47.4091 18.0539C47.5529 17.5422 47.4954 17.0873 47.2654 16.7176C47.0066 16.3196 46.5754 16.0637 45.9141 15.9216C41.4004 15.1255 38.4104 14.3863 37.9791 11.5716C37.8354 10.548 38.1229 9.52451 38.8129 8.72843C39.7904 7.59118 41.4866 6.93726 43.4704 6.93726C47.0929 6.93726 49.4504 8.52941 49.4504 11.0314C49.4504 11.6 48.9616 12.0833 48.3866 12.0833C47.8116 12.0833 47.3229 11.6 47.3229 11.0314C47.3229 9.55294 45.2529 9.04118 43.4704 9.04118C42.1479 9.04118 40.9979 9.43922 40.4229 10.0931C40.1354 10.4343 39.9916 10.8324 40.0779 11.2588C40.2504 12.3108 41.1991 12.9647 46.3166 13.8461H46.3454C47.8979 14.1588 48.7029 14.9833 49.0766 15.5804C49.6229 16.4333 49.7666 17.4853 49.4791 18.5657C48.9616 20.3 46.8916 21.8637 44.0454 21.8637Z" fill="#AFB2BF"/>
<path d="M68.4255 21.8637C64.2568 21.8637 60.8643 18.5088 60.8643 14.4147C60.8643 10.2922 64.2568 6.9657 68.4255 6.9657C72.2205 6.9657 75.4693 9.7804 75.9293 13.5049C75.9868 13.9882 75.728 14.3863 75.5555 14.5853C75.2968 14.8696 74.9518 15.0402 74.6068 15.0402H63.0205C63.308 17.7128 65.6368 19.8167 68.4255 19.8167C70.2943 19.8167 72.1918 18.85 72.9968 17.5137C73.2843 17.002 73.9455 16.8598 74.4343 17.1441C74.923 17.4284 75.1243 18.0824 74.808 18.5657C73.658 20.499 71.0705 21.8637 68.4255 21.8637ZM63.193 12.9079H73.658C72.9968 10.6618 70.8693 9.04119 68.4255 9.04119C65.953 9.04119 63.8543 10.6618 63.193 12.9079Z" fill="#AFB2BF"/>
<path d="M85.4743 6.93724C83.3468 6.93724 81.4206 7.81862 80.0406 9.21175V7.96077C80.0406 7.39215 79.5518 6.90881 78.9768 6.90881C78.4018 6.90881 77.9131 7.36372 77.9131 7.96077V25.901C77.9131 26.4696 78.3731 26.9529 78.9768 26.9529C79.5518 26.9529 80.0406 26.4696 80.0406 25.901V19.5608C81.4206 20.9823 83.3468 21.8353 85.4743 21.8353C89.6431 21.8353 93.0068 18.4804 93.0068 14.3863C93.0068 10.2921 89.6431 6.93724 85.4743 6.93724ZM85.4743 19.7598C82.4843 19.7598 80.0406 17.3431 80.0406 14.3863C80.0406 11.4294 82.4843 9.01274 85.4743 9.01274C88.4643 9.01274 90.9081 11.4294 90.9081 14.3863C90.9081 17.3431 88.4643 19.7598 85.4743 19.7598Z" fill="#AFB2BF"/>
<path d="M111.607 21.7499C110.572 21.7499 109.537 21.295 108.589 20.4137C107.87 19.7313 103.27 15.1539 103.098 14.9548C102.896 14.7558 102.781 14.4999 102.781 14.2156C102.781 13.9313 102.896 13.6754 103.098 13.4764L109.423 7.36367C109.854 6.96563 110.515 6.96563 110.917 7.3921C111.32 7.79014 111.32 8.47249 110.889 8.87053L105.34 14.2156C106.691 15.5803 109.509 18.3666 110.026 18.8784C110.601 19.4186 111.147 19.6745 111.665 19.646C111.809 19.646 112.154 19.646 112.441 19.646C113.016 19.646 113.505 20.1294 113.505 20.698C113.505 21.2666 113.016 21.7215 112.441 21.7499C112.154 21.7499 111.866 21.7499 111.723 21.7499C111.694 21.7499 111.636 21.7499 111.607 21.7499Z" fill="#AFB2BF"/>
<path d="M101.373 21.7784C100.798 21.7784 100.31 21.3235 100.31 20.7265V2.92843C100.31 2.3598 100.798 1.87646 101.373 1.87646C101.948 1.87646 102.437 2.33137 102.437 2.92843V20.7265C102.437 21.3235 101.948 21.7784 101.373 21.7784Z" fill="#AFB2BF"/>
<path d="M96.5427 4.63434C97.2902 4.63434 97.8939 4.03728 97.8939 3.29807C97.8939 2.55885 97.2902 1.96179 96.5427 1.96179C95.7952 1.96179 95.1914 2.55885 95.1914 3.29807C95.1914 4.03728 95.7952 4.63434 96.5427 4.63434Z" fill="#AFB2BF"/>
<path d="M25.9325 8.0745L21.2175 3.38332C19.3775 1.59214 16.9625 0.597046 14.375 0.597046C11.7875 0.597046 9.3725 1.59214 7.56125 3.38332L2.84625 8.0745C1.00625 9.86567 0 12.2539 0 14.8127C0 17.3716 1.00625 19.7598 2.8175 21.551L7.5325 26.2137C9.34375 28.0049 11.7875 29 14.3463 29C16.8475 29 19.2338 28.0618 21.045 26.3274L25.875 21.551C27.6863 19.7598 28.6925 17.3431 28.6925 14.8127C28.75 12.2539 27.7725 9.86567 25.9325 8.0745Z" fill="#AFB2BF"/>
<path d="M17.8535 23.0294C16.9622 23.8823 15.726 24.4225 14.4035 24.4225C13.0235 24.4225 11.7872 23.8823 10.8672 22.9725L13.196 20.6695C13.5122 20.9823 13.9147 21.1529 14.4035 21.1529C14.8635 21.1529 15.2947 20.9539 15.611 20.6695L20.326 16.0068C20.6422 15.6941 20.8147 15.296 20.8147 14.8127C20.8147 14.3578 20.6135 13.9313 20.326 13.6186C20.0097 13.3058 19.6072 13.1352 19.1185 13.1352C18.6297 13.1352 18.2272 13.3343 17.911 13.6186L13.196 18.3097C12.3047 19.1911 11.0397 19.7597 9.65973 19.7597C8.27973 19.7597 7.04348 19.1911 6.12348 18.3097C5.23223 17.4284 4.65723 16.1774 4.65723 14.8127C4.65723 13.448 5.20348 12.2254 6.12348 11.3156L10.8385 6.65288C11.7297 5.77151 12.9947 5.20288 14.3747 5.20288C15.7547 5.20288 16.991 5.74308 17.911 6.65288L15.5822 8.95582C15.266 8.64308 14.8635 8.47249 14.3747 8.47249C13.886 8.47249 13.4835 8.67151 13.1672 8.95582L8.45223 13.6186C8.13598 13.9313 7.96348 14.3294 7.96348 14.8127C7.96348 15.2676 8.16473 15.6941 8.45223 16.0068C8.76848 16.3195 9.17098 16.4901 9.65973 16.4901C10.1197 16.4901 10.551 16.2911 10.8672 16.0068L15.5822 11.3441C16.4735 10.4627 17.7385 9.89406 19.1185 9.89406C20.4985 9.89406 21.7347 10.4343 22.6547 11.3441C23.546 12.2254 24.121 13.4764 24.121 14.8411C24.121 16.2058 23.5747 17.4284 22.6547 18.3382L17.8535 23.0294Z" fill="#1E1F29"/>
</svg>
