<svg width="16" height="17" viewBox="0 0 16 17" fill="none" xmlns="http://www.w3.org/2000/svg">
<path d="M6.10178 4.10559C6.94622 2.59075 7.36843 1.83334 7.99967 1.83334C8.63092 1.83334 9.05313 2.59075 9.89757 4.10559L10.116 4.49749C10.356 4.92796 10.476 5.14319 10.663 5.28521C10.8501 5.42722 11.0831 5.47994 11.5491 5.58537L11.9733 5.68135C13.6131 6.05237 14.433 6.23788 14.6281 6.86516C14.8231 7.49243 14.2642 8.14605 13.1463 9.45329L12.8571 9.79148C12.5394 10.163 12.3806 10.3487 12.3091 10.5785C12.2376 10.8083 12.2617 11.0561 12.3097 11.5517L12.3534 12.0029C12.5224 13.7471 12.6069 14.6191 12.0962 15.0068C11.5856 15.3945 10.8179 15.041 9.28256 14.3341L8.88535 14.1512C8.44906 13.9503 8.23091 13.8499 7.99967 13.8499C7.76844 13.8499 7.55029 13.9503 7.114 14.1512L6.71679 14.3341C5.18146 15.041 4.41379 15.3945 3.90311 15.0068C3.39242 14.6191 3.47693 13.7471 3.64594 12.0029L3.68966 11.5517C3.73769 11.0561 3.76171 10.8083 3.69025 10.5785C3.61879 10.3487 3.45996 10.163 3.14229 9.79148L2.85307 9.45329C1.73517 8.14605 1.17622 7.49243 1.37129 6.86516C1.56635 6.23788 2.38625 6.05237 4.02603 5.68136L4.45027 5.58537C4.91624 5.47994 5.14923 5.42722 5.3363 5.28521C5.52338 5.14319 5.64336 4.92796 5.88332 4.49749L6.10178 4.10559Z" fill="#FDF41A" stroke="#FDF41A" stroke-width="1.5"/>
</svg>
